<svg width="16" height="18" viewBox="0 0 16 18" fill="none" xmlns="http://www.w3.org/2000/svg">
<path d="M5.61223 16.3111V13.763C5.61223 13.1125 6.14339 12.5852 6.79861 12.5852H9.19376C9.50841 12.5852 9.81017 12.7093 10.0327 12.9302C10.2551 13.151 10.3801 13.4506 10.3801 13.763V16.3111C10.3782 16.5815 10.485 16.8415 10.6769 17.0334C10.8688 17.2254 11.13 17.3333 11.4024 17.3333H13.0364C13.7996 17.3353 14.5322 17.0357 15.0726 16.5006C15.6129 15.9656 15.9166 15.2391 15.9166 14.4815V7.22234C15.9166 6.61034 15.6433 6.02983 15.1704 5.63718L9.61161 1.22985C8.64464 0.457094 7.25918 0.482044 6.32108 1.28911L0.889095 5.63718C0.393869 6.01825 0.0978789 6.60049 0.083252 7.22234V14.4741C0.083252 16.0532 1.37274 17.3333 2.9634 17.3333H4.56016C5.12594 17.3333 5.58575 16.8801 5.58985 16.3185L5.61223 16.3111Z" fill="#4086F4"/>
</svg>
