<svg width="105" height="105" viewBox="0 0 105 105" fill="none" xmlns="http://www.w3.org/2000/svg">
<g filter="url(#filter0_d_0_4407)">
<circle cx="52.5" cy="42.5" r="32.5" fill="url(#paint0_linear_0_4407)"/>
</g>
<path d="M52.3819 43.8916C48.285 43.8916 44.188 43.8916 40.0911 43.8908C39.9614 43.8908 39.8273 43.8945 39.7022 43.867C39.2544 43.7686 38.9519 43.3373 39.0063 42.8932C39.0607 42.4484 39.4399 42.1117 39.913 42.1094C40.9836 42.1035 42.055 42.1065 43.1256 42.1065C50.3234 42.1065 57.5212 42.1072 64.719 42.1087C64.8575 42.1087 65.0013 42.105 65.1347 42.1363C65.5743 42.2398 65.8641 42.6555 65.8179 43.0921C65.7702 43.5392 65.3947 43.8871 64.9246 43.8893C63.7139 43.8968 62.504 43.8931 61.2933 43.8931C58.3228 43.8931 55.3524 43.8931 52.3827 43.8931C52.3819 43.8931 52.3819 43.8923 52.3819 43.8916Z" fill="white"/>
<path d="M49.5553 55C48.2045 54.7973 46.8195 54.7213 45.5112 54.3652C42.765 53.6164 41.1953 51.7241 40.7445 48.9272C40.5776 47.8923 40.4748 46.8471 40.3556 45.8055C40.2833 45.1759 40.5836 44.7632 41.1319 44.6954C41.6765 44.6283 42.0759 44.9815 42.1362 45.5276C42.2659 46.7077 42.356 47.8976 42.5788 49.0613C42.9811 51.163 44.7021 52.6285 46.8367 52.8163C47.8462 52.9049 48.8542 53.0174 49.8608 53.1337C50.5954 53.2186 50.9344 54.0344 50.4948 54.6312C50.3048 54.8897 50.0805 54.9635 49.5553 55Z" fill="white"/>
<path d="M64.4464 40.3981C64.4308 40.5352 64.4322 40.6775 64.395 40.8086C64.3078 41.1185 64.0016 41.3778 63.7423 41.383C63.3005 41.3919 62.7999 41.0641 62.6978 40.6499C62.6248 40.3556 62.6226 40.0442 62.5823 39.7409C62.4572 38.7843 62.3968 37.8135 62.1882 36.8755C61.7606 34.9556 60.5327 33.7375 58.6143 33.3225C57.4744 33.0759 56.2972 32.9999 55.1364 32.8471C55.0076 32.83 54.8757 32.824 54.7505 32.792C54.3311 32.6855 54.0584 32.2869 54.1113 31.8704C54.1701 31.4077 54.527 31.0538 54.9733 31.0859C56.5043 31.1954 58.0428 31.3064 59.512 31.7765C61.8634 32.5298 63.3452 34.1577 63.9055 36.5395C64.2013 37.7986 64.3019 39.1032 64.4904 40.3869C64.4762 40.3914 64.4613 40.3943 64.4464 40.3981Z" fill="white"/>
<path d="M64.4225 45.8808C64.2988 47.1675 64.2086 48.5808 63.8167 49.9442C63.0777 52.5146 60.8962 54.2892 58.2372 54.5493C57.1554 54.6551 56.0781 54.8108 54.9993 54.9441C54.6171 54.9918 54.2013 54.623 54.1209 54.1648C54.0404 53.7059 54.3287 53.2551 54.7832 53.194C55.3263 53.1203 55.8777 53.1061 56.4208 53.0331C57.3223 52.9132 58.2566 52.8804 59.1133 52.6084C60.97 52.0199 62.0071 50.6639 62.279 48.7454C62.4235 47.7255 62.5308 46.7003 62.6336 45.6752C62.6932 45.0821 63.0799 44.6686 63.6007 44.6984C64.1043 44.7275 64.4515 45.1745 64.4225 45.8808Z" fill="white"/>
<path d="M40.3296 40.2751C40.5278 38.9549 40.6209 37.6079 40.945 36.319C41.6006 33.7106 43.3492 32.1185 45.9591 31.5329C47.134 31.2692 48.3477 31.1775 49.5449 31.0173C49.7267 30.9927 49.9227 30.9913 50.0985 31.033C50.512 31.1306 50.7549 31.5098 50.7154 31.9404C50.6737 32.3912 50.3682 32.6907 49.9286 32.7398C48.8476 32.8605 47.7643 32.9708 46.687 33.1228C44.4109 33.4432 42.8337 35.0234 42.5237 37.2846C42.3755 38.3693 42.257 39.4586 42.1296 40.5463C42.0782 40.9844 41.7019 41.3122 41.2423 41.3063C40.796 41.3003 40.4153 40.9449 40.3907 40.5083C40.3862 40.4346 40.3899 40.3601 40.3899 40.2856C40.3698 40.2818 40.3497 40.2789 40.3296 40.2751Z" fill="white"/>
<defs>
<filter id="filter0_d_0_4407" x="0" y="0" width="105" height="105" filterUnits="userSpaceOnUse" color-interpolation-filters="sRGB">
<feFlood flood-opacity="0" result="BackgroundImageFix"/>
<feColorMatrix in="SourceAlpha" type="matrix" values="0 0 0 0 0 0 0 0 0 0 0 0 0 0 0 0 0 0 127 0" result="hardAlpha"/>
<feOffset dy="10"/>
<feGaussianBlur stdDeviation="10"/>
<feComposite in2="hardAlpha" operator="out"/>
<feColorMatrix type="matrix" values="0 0 0 0 0.829167 0 0 0 0 0.829167 0 0 0 0 0.829167 0 0 0 1 0"/>
<feBlend mode="normal" in2="BackgroundImageFix" result="effect1_dropShadow_0_4407"/>
<feBlend mode="normal" in="SourceGraphic" in2="effect1_dropShadow_0_4407" result="shape"/>
</filter>
<linearGradient id="paint0_linear_0_4407" x1="53" y1="-0.999999" x2="53" y2="81" gradientUnits="userSpaceOnUse">
<stop stop-color="#4086F4"/>
<stop offset="1" stop-color="#4086F4"/>
</linearGradient>
</defs>
</svg>
