<svg width="16" height="16" viewBox="0 0 16 16" fill="none" xmlns="http://www.w3.org/2000/svg">
<g clip-path="url(#clip0_139_21)">
<path d="M14.3497 11.2741C13.9907 9.93435 12.6136 9.13928 11.2738 9.49827C9.93403 9.85726 9.13895 11.2344 9.49794 12.5741C9.85693 13.9139 11.234 14.709 12.5738 14.35C13.9136 13.991 14.7087 12.6139 14.3497 11.2741Z" stroke="black" stroke-width="1.8"/>
<path d="M6.50153 3.42598C6.14254 2.08621 4.76542 1.29113 3.42565 1.65012C2.08588 2.00911 1.29081 3.38623 1.6498 4.72599C2.00879 6.06576 3.3859 6.86084 4.72567 6.50185C6.06544 6.14286 6.86052 4.76574 6.50153 3.42598Z" stroke="black" stroke-width="1.8"/>
<path d="M2.99951 14L12.9995 2" stroke="black" stroke-width="1.8" stroke-linecap="round"/>
</g>
<defs>
<clipPath id="clip0_139_21">
<rect width="16" height="16" fill="white"/>
</clipPath>
</defs>
</svg>
