<svg width="100" height="35" viewBox="0 0 100 35" fill="none" xmlns="http://www.w3.org/2000/svg">
<rect x="0.000976562" width="100" height="35" rx="6" fill="#1271ff"/>
<path d="M42.329 23H48.857V21.48H44.025V12.44H42.329V23ZM49.8929 19.064C49.8449 21.288 51.7809 23.224 54.0369 23.176C56.3249 23.224 58.2609 21.288 58.2129 19.064C58.2609 16.84 56.3249 14.92 54.0369 14.968C51.7809 14.936 49.8449 16.808 49.8929 19.064ZM56.4849 19.08C56.4849 20.504 55.4289 21.624 54.0369 21.624C52.6609 21.624 51.6049 20.536 51.6049 19.08C51.6049 17.624 52.6609 16.504 54.0529 16.504C55.4129 16.504 56.4849 17.624 56.4849 19.08ZM66.2989 15.144V16.264C65.7229 15.448 64.7149 14.968 63.5149 14.968C61.3389 14.968 59.6909 16.616 59.6909 18.904C59.6909 21.192 61.3229 22.84 63.5149 22.84C64.6029 22.84 65.5789 22.44 66.1709 21.72V22.28C66.1709 23.752 65.2429 24.52 63.8189 24.52C62.7469 24.52 61.9469 24.104 61.0669 23.4L60.1389 24.568C61.0829 25.448 62.3629 26.056 63.9149 26.056C66.2989 26.056 67.8509 24.664 67.8509 22.184V15.144H66.2989ZM66.1869 18.888C66.1869 19.688 65.9469 20.296 65.4829 20.728C65.0189 21.16 64.4749 21.368 63.8189 21.368C63.1309 21.368 62.5709 21.144 62.1069 20.696C61.6429 20.232 61.4189 19.64 61.4189 18.904C61.4189 18.184 61.6429 17.592 62.1069 17.144C62.5709 16.696 63.1309 16.472 63.8189 16.472C65.1149 16.472 66.1869 17.288 66.1869 18.888ZM70.2795 23H71.9595V15.144H70.2795V23ZM69.9755 12.216C69.9755 12.84 70.4875 13.32 71.1275 13.32C71.7515 13.32 72.2635 12.84 72.2635 12.216C72.2635 11.592 71.7515 11.096 71.1275 11.096C70.4875 11.096 69.9755 11.592 69.9755 12.216ZM81.2529 18.088C81.2529 16.216 80.1489 14.968 78.3089 14.968C77.3329 14.968 76.5489 15.288 75.9569 15.912V15.144H74.3889V23H76.0689V18.312C76.0689 17.24 76.8209 16.488 77.8609 16.488C78.8849 16.488 79.5729 17.224 79.5729 18.312V23H81.2529V18.088Z" fill="white"/>
<path d="M35.1601 17.1005H25.126" stroke="white" stroke-width="1.5" stroke-linecap="round" stroke-linejoin="round"/>
<path d="M32.7212 14.6704L35.1612 17.1004L32.7212 19.5304" stroke="white" stroke-width="1.5" stroke-linecap="round" stroke-linejoin="round"/>
<path d="M30.6343 13.3582C30.3593 10.3748 29.2426 9.2915 24.8009 9.2915C18.8834 9.2915 18.8834 11.2165 18.8834 16.9998C18.8834 22.7832 18.8834 24.7082 24.8009 24.7082C29.2426 24.7082 30.3593 23.6248 30.6343 20.6415" stroke="white" stroke-width="1.5" stroke-linecap="round" stroke-linejoin="round"/>
</svg>
