<svg width="50" height="50" viewBox="0 0 85 85" fill="none" xmlns="http://www.w3.org/2000/svg">
<g filter="url(#filter0_d_5_301)">
<rect x="20" y="10" width="45" height="45" rx="14" fill="url(#paint0_linear_5_301)" shape-rendering="crispEdges"/>
</g>
<path d="M42.2149 37.3925H36.2817" stroke="white" stroke-width="1.5" stroke-linecap="round" stroke-linejoin="round"/>
<path fill-rule="evenodd" clip-rule="evenodd" d="M45.9377 37.3934C45.9377 39.2651 46.5619 39.8884 48.4327 39.8884C50.3035 39.8884 50.9277 39.2651 50.9277 37.3934C50.9277 35.5218 50.3035 34.8984 48.4327 34.8984C46.5619 34.8984 45.9377 35.5218 45.9377 37.3934Z" stroke="white" stroke-width="1.5" stroke-linecap="round" stroke-linejoin="round"/>
<path d="M44.9951 27.778H50.9274" stroke="white" stroke-width="1.5" stroke-linecap="round" stroke-linejoin="round"/>
<path fill-rule="evenodd" clip-rule="evenodd" d="M41.2723 27.7767C41.2723 25.9059 40.6481 25.2817 38.7773 25.2817C36.9056 25.2817 36.2815 25.9059 36.2815 27.7767C36.2815 29.6484 36.9056 30.2717 38.7773 30.2717C40.6481 30.2717 41.2723 29.6484 41.2723 27.7767Z" stroke="white" stroke-width="1.5" stroke-linecap="round" stroke-linejoin="round"/>
<defs>
<filter id="filter0_d_5_301" x="0" y="0" width="85" height="85" filterUnits="userSpaceOnUse" color-interpolation-filters="sRGB">
<feFlood flood-opacity="0" result="BackgroundImageFix"/>
<feColorMatrix in="SourceAlpha" type="matrix" values="0 0 0 0 0 0 0 0 0 0 0 0 0 0 0 0 0 0 127 0" result="hardAlpha"/>
<feOffset dy="10"/>
<feGaussianBlur stdDeviation="10"/>
<feComposite in2="hardAlpha" operator="out"/>
<feColorMatrix type="matrix" values="0 0 0 0 0.0705882 0 0 0 0 0.443137 0 0 0 0 1 0 0 0 0.3 0"/>
<feBlend mode="normal" in2="BackgroundImageFix" result="effect1_dropShadow_5_301"/>
<feBlend mode="normal" in="SourceGraphic" in2="effect1_dropShadow_5_301" result="shape"/>
</filter>
<linearGradient id="paint0_linear_5_301" x1="11" y1="-3" x2="65" y2="55" gradientUnits="userSpaceOnUse">
<stop stop-color="#1271FF" stop-opacity="0.45"/>
<stop offset="1" stop-color="#1271FF"/>
</linearGradient>
</defs>
</svg>
