<svg width="19" height="18" viewBox="0 0 19 18" fill="none" xmlns="http://www.w3.org/2000/svg">
<path d="M18.3333 5.80131L17.3896 11.7777C17.2181 12.9562 16.2744 13.7138 15.0734 13.7138H6.83815C5.72296 13.7138 4.69355 12.872 4.52198 11.7777L3.49257 4.7912L3.23521 2.85518C3.14943 2.35013 2.72051 2.01343 2.12002 2.01343H1.51953C1.17639 2.01343 0.833252 1.67673 0.833252 1.34003C0.833252 1.00333 1.17639 0.666626 1.51953 0.666626H2.12002C3.321 0.666626 4.35041 1.50838 4.43619 2.68683L4.60776 4.03363H16.7891C17.2181 4.03363 17.647 4.20198 17.9043 4.53868C18.2475 4.87538 18.3333 5.38043 18.3333 5.80131Z" fill="#D9D9D9"/>
<path d="M15.245 17.3333C15.7188 17.3333 16.1029 16.9564 16.1029 16.4915C16.1029 16.0267 15.7188 15.6498 15.245 15.6498C14.7712 15.6498 14.3872 16.0267 14.3872 16.4915C14.3872 16.9564 14.7712 17.3333 15.245 17.3333Z" fill="#D9D9D9"/>
<path d="M6.66659 17.3333C7.14036 17.3333 7.52443 16.9564 7.52443 16.4915C7.52443 16.0267 7.14036 15.6498 6.66659 15.6498C6.19281 15.6498 5.80874 16.0267 5.80874 16.4915C5.80874 16.9564 6.19281 17.3333 6.66659 17.3333Z" fill="#D9D9D9"/>
</svg>
