<svg width="14" height="18" viewBox="0 0 14 18" fill="none" xmlns="http://www.w3.org/2000/svg">
<path d="M7.00016 8.83001C9.26595 8.83001 11.1027 7.0026 11.1027 4.74838C11.1027 2.49416 9.26595 0.666748 7.00016 0.666748C4.73438 0.666748 2.8976 2.49416 2.8976 4.74838C2.8976 7.0026 4.73438 8.83001 7.00016 8.83001Z" fill="#D9D9D9"/>
<path d="M9.13691 10.5308H4.86341C2.38478 10.5308 0.333496 12.5716 0.333496 15.0376C0.333496 15.6328 0.589906 16.143 1.10273 16.3981C1.87196 16.8233 3.58136 17.3335 7.00016 17.3335C10.419 17.3335 12.1284 16.8233 12.8976 16.3981C13.3249 16.143 13.6668 15.6328 13.6668 15.0376C13.6668 12.4866 11.6155 10.5308 9.13691 10.5308Z" fill="#D9D9D9"/>
</svg>
